<?xml version="1.0" encoding="utf-8"?>
<!-- Generator: Adobe Illustrator 20.1.0, SVG Export Plug-In . SVG Version: 6.00 Build 0)  -->
<svg version="1.1" id="Layer_1" xmlns="http://www.w3.org/2000/svg" xmlns:xlink="http://www.w3.org/1999/xlink" x="0px" y="0px"
	 viewBox="0 0 1095 136.2" style="enable-background:new 0 0 1095 136.2;" xml:space="preserve">
<style type="text/css">
	.st0{fill:#F15B29;}
</style>
<g>
	<polygon class="st0" points="914.5,33.1 914.5,3.7 806.8,3.7 806.8,30 878.3,30 806.8,91.7 806.8,123.6 914.5,123.6 914.5,97.3 
		840.2,97.3 	"/>
	<path class="st0" d="M260,3.7v62.4c0,21.8-12.4,32.8-30.8,32.8c-18.4,0-30.8-11-30.8-32.8V3.7h-26.3v62.4
		c0,37.9,24.2,59.7,57.1,59.7v0c0,0,0,0,0,0c0,0,0,0,0,0v0c32.9,0,57.1-21.8,57.1-59.7V3.7H260z"/>
	<path class="st0" d="M126.7,117.8l-14.2-14.6c8.8-10.9,14.2-24.8,14.2-39.9C126.7,28.4,98.3,0,63.4,0C28.4,0,0,28.4,0,63.4
		c0,34.9,28.4,63.3,63.4,63.3c10.3,0,20-2.5,28.6-6.9l15.8,16.3L126.7,117.8z M26.7,63.4c0-20.2,16.5-36.7,36.7-36.7
		c20.2,0,36.7,16.5,36.7,36.7c0,20.2-16.5,36.7-36.7,36.7C43.1,100.1,26.7,83.6,26.7,63.4z"/>
	<path class="st0" d="M616,123.6l-32.2-42.9c13.2-6.8,22.2-20.5,22.2-36.2c0-22.5-18.3-40.7-40.7-40.7h-58.2v119.9h26.3V85.2h20.8
		l28.7,38.4H616z M533.4,30h31.9c7.9,0,14.4,6.4,14.4,14.4c0,7.9-6.5,14.4-14.4,14.4h-31.9V30z"/>
	<path class="st0" d="M431.3,123.6h29.2L404.2,3.7h-24.5l-56.3,119.9h29.2l11.5-24.8h55.7L431.3,123.6z M375.3,74.2L392,39.8
		l16.8,34.4H375.3z"/>
	<polygon class="st0" points="762.8,3.7 648.1,3.7 648.1,30 692.3,30 692.3,123.6 718.6,123.6 718.6,30 762.8,30 	"/>
	<polygon class="st0" points="1095,3.7 1060.4,3.7 1023.9,46.6 987.3,3.7 952.8,3.7 1010.7,71.8 1010.7,123.6 1037.1,123.6 
		1037.1,71.8 	"/>
</g>
</svg>
