<?xml version="1.0" encoding="UTF-8" standalone="no"?>
<!-- Created with Inkscape (http://www.inkscape.org/) -->

<svg
   xmlns:dc="http://purl.org/dc/elements/1.1/"
   xmlns:cc="http://creativecommons.org/ns#"
   xmlns:rdf="http://www.w3.org/1999/02/22-rdf-syntax-ns#"
   xmlns:svg="http://www.w3.org/2000/svg"
   xmlns="http://www.w3.org/2000/svg"
   xmlns:sodipodi="http://sodipodi.sourceforge.net/DTD/sodipodi-0.dtd"
   xmlns:inkscape="http://www.inkscape.org/namespaces/inkscape"
   version="1.1"
   id="svg815"
   width="836"
   height="847"
   viewBox="0 0 836 847"
   sodipodi:docname="favicon.svg"
   inkscape:version="0.92.4 (f8dce91, 2019-08-02)">
  <metadata
     id="metadata821">
    <rdf:RDF>
      <cc:Work
         rdf:about="">
        <dc:format>image/svg+xml</dc:format>
        <dc:type
           rdf:resource="http://purl.org/dc/dcmitype/StillImage" />
        <dc:title></dc:title>
      </cc:Work>
    </rdf:RDF>
  </metadata>
  <defs
     id="defs819" />
  <sodipodi:namedview
     pagecolor="#ffffff"
     bordercolor="#666666"
     borderopacity="1"
     objecttolerance="10"
     gridtolerance="10"
     guidetolerance="10"
     inkscape:pageopacity="0"
     inkscape:pageshadow="2"
     inkscape:window-width="1920"
     inkscape:window-height="960"
     id="namedview817"
     showgrid="false"
     inkscape:zoom="0.65033788"
     inkscape:cx="503.06268"
     inkscape:cy="384.7372"
     inkscape:window-x="0"
     inkscape:window-y="27"
     inkscape:window-maximized="1"
     inkscape:current-layer="svg815"
     fit-margin-top="0"
     fit-margin-left="0"
     fit-margin-right="0"
     fit-margin-bottom="0" />
  <path
     style="fill:#000000"
     d="M 0,423.5 V 0 h 418.00003 418 V 423.5 847 h -418 H 0 Z m 189.00003,370.28238 c 5.3816,-1.62986 8.617,-4.36787 10.3862,-8.78972 3.1452,-7.86056 1.7655,-11.99266 -4.0044,-11.99266 -5.1619,0 -6.3818,0.87323 -6.3818,4.56803 0,5.61327 -2.9556,7.43197 -12.0778,7.43197 -10.8074,0 -12.2461,-1.28226 -12.7555,-11.3685 l -0.383,-7.58555 18.3581,-0.27297 18.3582,-0.27298 0.2875,-9.2536 c 0.3618,-11.6405 -0.8354,-16.20326 -5.2741,-20.1005 -4.3763,-3.84239 -9.0428,-5.13329 -18.5819,-5.14032 -14.7463,-0.0109 -23.0343,4.82817 -24.451,14.27603 -0.3601,2.40131 -0.5031,11.9828 -0.3176,21.2922 0.3836,19.26243 1.2969,22.15384 8.1152,25.69131 6.8358,3.54652 19.766,4.22957 28.7219,1.51726 z m -25,-40.63316 c 0,-5.5594 1.7308,-9.70556 4.5968,-11.01138 1.3735,-0.62581 5.4216,-1.13784 8.9957,-1.13784 5.5662,0 6.8505,0.35211 8.9529,2.45455 2.0159,2.01589 2.4546,3.44556 2.4546,8 V 757 h -12.5 -12.5 z m 74.5663,41.77363 c 3.2635,-0.59243 7.8462,-2.18639 10.1837,-3.54215 3.9032,-2.26387 4.25,-2.31469 4.25,-0.62285 0,2.73295 1.9987,4.24215 5.6182,4.24215 6.7704,0 6.3818,1.95498 6.3818,-32.10699 V 732 h -6 -6 v 22.84501 c 0,20.66544 -0.1705,22.99927 -1.7866,24.46186 -5.0295,4.5516 -17.7201,6.35456 -21.3847,3.03814 -1.6702,-1.5115 -1.8301,-3.65732 -1.844,-24.75 -0.01,-12.70225 -0.3886,-23.68345 -0.8447,-24.40266 -0.5596,-0.88233 -2.5874,-1.20758 -6.2347,-1 l -5.4053,0.30765 -0.2786,24.5 c -0.2338,20.55348 -0.02,25.18256 1.3278,28.73736 1.8931,4.99323 5.7497,8.03326 11.6713,9.20019 2.3537,0.46383 4.3093,0.89262 4.3458,0.95288 0.037,0.0603 2.7365,-0.37515 6,-0.96758 z m 126.5222,-1.52735 c 5.2436,-1.65582 9.1287,-5.36764 10.7754,-10.29472 0.6717,-2.00972 1.1361,-10.40513 1.1361,-20.53811 0,-15.78496 -0.1778,-17.49137 -2.25,-21.60078 -3.2245,-6.39424 -9.4263,-9.33459 -20.7134,-9.82038 -14.7554,-0.63508 -23.4402,2.79349 -26.6726,10.52968 -1.9649,4.70269 -1.932,39.33647 0.041,43.12847 1.594,3.0637 5.0266,6.39952 8.3469,8.11158 5.9463,3.06614 20.4046,3.30481 29.3366,0.48426 z m -22.7244,-9.51367 c -3.6824,-1.87169 -4.3641,-5.21035 -4.3641,-21.37312 0,-14.83464 0.088,-15.49969 2.4134,-18.20295 2.2647,-2.63282 2.8991,-2.80576 10.294,-2.80576 5.8602,0 8.5743,0.45456 10.5866,1.77305 l 2.706,1.77306 v 17.82196 c 0,21.69945 0.112,21.49289 -11.8519,21.86288 -4.2065,0.13009 -8.6093,-0.25201 -9.784,-0.84912 z m 83.6359,9.90055 c 8.4512,-2.55949 12,-7.67562 12,-17.29992 0,-6.33287 -1.7335,-10.42258 -5.4499,-12.85765 -1.4036,-0.91971 -8.2321,-3.65202 -15.1744,-6.0718 -6.9423,-2.41978 -13.1068,-4.88412 -13.699,-5.47631 -1.6918,-1.69173 -1.2756,-7.90641 0.659,-9.84099 1.3557,-1.35572 3.4714,-1.73571 9.6643,-1.73571 9.1326,0 10.9212,1.07829 11.9133,7.18209 l 0.6206,3.81791 h 4.983 4.9831 l -0.042,-5.2326 c -0.05,-6.22422 -2.2162,-9.65682 -8.015,-12.69878 -3.2592,-1.70978 -5.7646,-2.06862 -14.4432,-2.06862 -8.6786,0 -11.1841,0.35884 -14.4433,2.06862 -6.4281,3.37208 -8.0567,6.39403 -8.0567,14.94917 0,7.01419 0.163,7.53934 3.367,10.84497 2.6199,2.70308 6.059,4.41453 15.5,7.71348 6.6731,2.3318 12.9205,4.9133 13.883,5.73668 1.1655,0.99704 1.75,2.93971 1.75,5.81639 0,3.83277 -0.3546,4.50267 -3.1473,5.94687 -2.3093,1.19415 -5.0817,1.52986 -10.4116,1.26071 -8.6239,-0.43548 -11.4411,-2.28025 -11.4411,-7.49188 V 775 h -5.6239 -5.6238 l 0.458,5.52213 c 0.3588,4.32755 1.0695,6.16053 3.2853,8.47327 5.8539,6.11023 20.8452,8.31802 32.5044,4.78698 z m 61,0 c 1.925,-0.583 4.7024,-1.90322 6.1721,-2.93382 3.3527,-2.35113 6.0686,-9.28815 5.6484,-14.42758 L 498.50003,772.5 h -5.5 -5.5 l -0.5885,4.41001 c -0.8367,6.26984 -3.4438,8.08999 -11.5881,8.08999 -6.2447,0 -10.0319,-1.11396 -11.5581,-3.3997 -0.4041,-0.60517 -0.7416,-9.01806 -0.75,-18.69531 -0.014,-16.49689 0.113,-17.71117 2.0413,-19.45621 2.8951,-2.62004 13.5133,-3.23967 17.7725,-1.03713 2.9114,1.50555 3.5981,2.77036 4.3913,8.08835 0.2478,1.66119 1.188,2.05127 5.5501,2.30265 6.1519,0.35451 6.8052,-0.47795 5.7736,-7.35713 C 497.10173,735.82713 489.04963,731 474.44763,731 c -9.0044,0 -15.4863,1.77477 -19.298,5.2838 -4.5459,4.18488 -5.1496,7.3472 -5.1496,26.97219 0,17.02722 0.1588,18.63105 2.25,22.72418 2.6168,5.12193 7.1554,7.84817 15.0281,9.02711 5.9074,0.88462 14.5234,0.34949 19.7219,-1.2249 z m 90.2045,0.11155 c 7.6928,-1.96556 12.1729,-8.14213 11.6097,-16.00611 L 588.50003,773.5 h -4.9831 -4.983 l -0.6401,3.93808 c -0.962,5.9183 -3.6506,7.56192 -12.3698,7.56192 -5.8248,0 -7.7735,-0.40841 -9.8892,-2.07258 -2.4226,-1.90564 -2.6348,-2.66896 -2.6348,-9.47693 v -7.40434 l 17.75,-0.27308 17.75,-0.27307 0.28,-11.5575 c 0.2578,-10.63775 0.098,-11.83145 -2.0132,-15 -3.9087,-5.86756 -8.5149,-7.4425 -21.7668,-7.4425 -10.4265,0 -11.9108,0.23337 -15.9006,2.5 -7.7095,4.37989 -8.2115,6.30147 -7.8835,30.17973 0.264,19.21826 0.4328,20.87903 2.3886,23.5 1.1575,1.55115 3.465,3.61709 5.1278,4.59097 5.8047,3.39972 18.6526,4.13219 28.4722,1.62323 z m -24.2045,-42.43938 c 0,-4.55444 0.4386,-5.98411 2.4545,-8 2.1098,-2.10983 3.3808,-2.45455 9.0497,-2.45455 10.7735,0 13.4519,2.33425 13.4821,11.75 l 0.014,4.25 h -12.5 -12.5 z m 154,42.34287 c 8.3564,-2.49487 12.5434,-8.61743 11.8291,-17.29742 l -0.3291,-4 h -5.5 -5.5 l -0.3061,4.22155 c -0.4491,6.19273 -3.5213,8.27845 -12.1939,8.27845 -5.2947,0 -7.2923,-0.4421 -9.3652,-2.07258 l -2.6348,-2.07258 v -17.77243 c 0,-21.78404 -0.1121,-21.58241 12,-21.58241 9.1618,0 11.7104,1.53723 12.1959,7.35608 l 0.3041,3.64392 h 5.5 5.5 l 0.2787,-4.5 c 0.3751,-6.05573 -2.3177,-10.84104 -7.8782,-14 -3.9898,-2.26663 -5.474,-2.5 -15.9005,-2.5 -9.5215,0 -12.1771,0.34408 -15.4355,2 -8.0302,4.08095 -9.5171,8.69017 -9.5162,29.5 8e-4,20.77214 1.5409,25.63634 9.413,29.72998 5.9793,3.10935 19.0079,3.61435 27.5387,1.06744 z m 61,-0.015 c 1.925,-0.583 4.6863,-1.89173 6.1362,-2.90829 4.572,-3.20546 7.5359,-13.80198 4.6638,-16.67409 -0.66,-0.66 -2.82,-1.2 -4.8,-1.2 -4.3148,0 -6,1.44959 -6,5.16104 0,4.93992 -3.3227,6.83892 -11.9661,6.83892 -10.985,0 -12.0339,-0.96176 -12.0339,-11.03363 v -7.92022 l 17.75,-0.27308 17.75,-0.27307 0.2862,-10.35951 c 0.242,-8.75931 -0.028,-11.00927 -1.7501,-14.56591 -3.1009,-6.40548 -8.3074,-8.89661 -19.6416,-9.39784 -15.1639,-0.67057 -23.3358,2.97759 -26.2585,11.72248 -1.4187,4.24495 -1.5092,35.21717 -0.1175,40.22734 1.1215,4.03748 5.1702,8.58954 8.9815,10.09807 6.7094,2.65561 19.2197,2.91404 27,0.55775 z M 744.01533,751.25 c 0.01,-3.1625 0.3459,-6.24513 0.75,-6.8503 1.5249,-2.28371 5.3111,-3.3997 11.5341,-3.3997 9.2801,0 11.7006,2.08369 11.7006,10.07258 V 757 h -12 -12 l 0.015,-5.75 z m -656.5971,43.14301 c 1.3938,-0.53487 1.5818,-4.17889 1.5818,-30.66927 v -30.06228 l 17.0449,29.88801 c 9.3747,16.43841 17.5872,30.23269 18.25,30.65396 1.4491,0.92105 6.9208,1.03475 9.1233,0.18958 1.408,-0.54028 1.5818,-5.26561 1.5818,-43 V 709 h -6 -6 v 30.24987 30.24988 l -5.271,-9.49988 c -2.899,-5.22493 -10.6167,-18.85781 -17.15031,-30.29529 l -11.87939,-20.79542 -5.5997,0.29542 -5.5996,0.29542 -0.2612,41.38404 c -0.1876,29.7192 0.058,41.76906 0.8724,42.75 1.1648,1.40349 6.4947,1.83814 9.307,0.75897 z m 206,0 c 1.3769,-0.52838 1.5818,-3.49462 1.5818,-22.90498 v -22.29799 l 4.25,-2.48476 c 3.9561,-2.31294 8.2193,-3.78341 15.0534,-5.19228 2.6508,-0.54646 2.787,-0.83494 2.5,-5.29547 -0.2938,-4.56724 -0.412,-4.72789 -3.7122,-5.04273 -4.1104,-0.39213 -11.1193,2.13649 -15.0202,5.41889 l -2.85,2.3981 -0.6558,-3.49589 C 293.91103,732.00879 293.89563,732 288.45473,732 h -5.4547 v 30.91667 c 0,23.79766 0.2878,31.03281 1.25,31.42105 1.8091,0.73001 7.3232,0.76326 9.1682,0.0553 z m 230.4744,-0.76364 c 0.8076,-0.97306 1.0606,-10.03767 0.8725,-31.25 l -0.2651,-29.87937 -5.4054,-0.30765 c -3.6472,-0.20758 -5.6751,0.11767 -6.2347,1 -0.4561,0.71921 -0.8362,14.44779 -0.8446,30.50796 -0.014,26.7644 0.1307,29.28534 1.7347,30.21959 2.5465,1.48319 8.8197,1.30349 10.1426,-0.29053 z m 91.9653,0.0418 c 0.7125,-0.85852 1.1983,-9.26469 1.3725,-23.75 l 0.2696,-22.42117 5.4293,-2.75 c 7.2436,-3.66895 14.1272,-3.7844 17.6161,-0.29545 l 2.4546,2.45454 v 23.43847 c 0,25.64033 -0.2405,24.65244 6,24.65244 6.2712,0 6,1.21457 6,-26.87259 0,-29.07199 -0.342,-30.64249 -7.6041,-34.92463 -5.5235,-3.25691 -17.5677,-2.73631 -25.0241,1.08164 -5.3189,2.72347 -6.3718,2.64893 -6.3718,-0.45109 0,-1.55114 -0.8301,-1.83333 -5.393,-1.83333 -3.9953,0 -5.5504,0.40997 -6,1.58179 -0.3339,0.86998 -0.607,14.33784 -0.607,29.92857 0,31.74928 -0.057,31.48964 6.949,31.48964 2.0933,0 4.3024,-0.59799 4.9089,-1.32886 z M 524.50003,714.5 v -8 l -4.8277,-0.30796 c -6.5904,-0.42041 -7.6723,0.74021 -7.6723,8.2304 0,7.64725 0.9899,8.75307 7.4938,8.37136 l 5.0062,-0.2938 z m -302.4097,-41.70245 c 9.4108,-4.70187 20.164,-15.75633 22.4829,-23.11269 2.8255,-8.96358 1.8965,-10.72932 -18.3841,-34.94245 -9.729,-11.61549 -18.8931,-21.99715 -20.3646,-23.07037 -1.4716,-1.07322 -4.978,-2.17255 -7.7921,-2.44295 -4.4128,-0.42401 -6.108,-7e-4 -12.3245,3.07766 -8.3223,4.1211 -18.4924,13.55082 -21.6502,20.07402 -2.1896,4.52307 -2.6645,10.89303 -1.1159,14.9663 1.4497,3.81286 35.7217,44.47703 39.3502,46.68943 5.0191,3.06032 12.0773,2.61862 19.7983,-1.23895 z m -12.6638,-9.7634 c -1.7953,-0.72654 -27.9404,-31.09881 -32.7169,-38.00666 -3.4036,-4.9224 -1.6143,-11.26996 4.7528,-16.86035 5.328,-4.67803 9.1226,-6.31496 13.8438,-5.97189 4.1242,0.29969 4.4639,0.62775 20.4804,19.77653 8.9576,10.70948 16.5641,20.57752 16.9033,21.92899 1.3425,5.34876 -6.4967,15.03142 -15.0696,18.61341 -3.9704,1.65894 -5.1883,1.73623 -8.1938,0.51997 z m 78.3917,-11.24815 c 2.3,-1.7677 4.1818,-3.53709 4.1818,-3.93199 0,-0.39489 -4.0827,-5.67167 -9.0726,-11.72616 -4.99,-6.0545 -9.1525,-11.36015 -9.25,-11.79034 -0.098,-0.43019 1.6929,-1.10145 3.9788,-1.49169 7.8671,-1.343 17.8096,-7.97834 20.8949,-13.9446 1.9152,-3.70358 1.8365,-9.24252 -0.1876,-13.20088 -2.6612,-5.20449 -25.1375,-31.53211 -28.328,-33.18197 -9.8957,-5.11725 -23.4011,3.07069 -29.0979,17.64126 -1.368,3.49865 -1.7261,3.80019 -2.8726,2.41866 -1.7883,-2.15477 -2.824,-1.99949 -6.7778,1.01621 -2.2425,1.71046 -3.2969,3.27658 -3.0944,4.59633 0.2888,1.88208 53.6025,66.80917 54.8591,66.80917 0.3215,0 2.4663,-1.4463 4.7663,-3.214 z m -30.9269,-46.97109 c -10.5541,-12.81026 -10.2383,-12.23346 -8.907,-16.26728 2.6754,-8.10663 10.61,-15.36824 15.4618,-14.1505 1.2452,0.31252 6.718,5.98175 12.3868,12.83138 12.1321,14.6592 12.6302,16.50734 5.9824,22.19755 -2.3015,1.97004 -5.789,4.0276 -7.75,4.57234 -7.5333,2.09272 -8.1598,1.75771 -17.174,-9.18349 z m 67.2095,-17.95966 c 4.9023,-1.65096 15.2173,-9.18725 18.5919,-13.58355 5.5605,-7.24409 6.6482,-12.72302 3.6867,-18.57136 -3.7309,-7.36779 -6.4253,-8.34946 -10.6923,-3.89562 -3.0273,3.15981 -3.3913,5.36598 -1.1871,7.19528 3.7356,3.10027 0.8123,9.58804 -6.8073,15.10764 -6.7156,4.86473 -8.4092,4.27016 -17.3972,-6.10764 l -2.1652,-2.5 13.3816,-11 c 7.3599,-6.05 13.4056,-11.60905 13.4349,-12.35345 0.09,-2.28817 -12.7102,-16.8064 -16.3335,-18.52574 -4.865,-2.30862 -8.2585,-2.02365 -15.2415,1.27991 -6.8454,3.23843 -16.0363,11.76507 -18.6746,17.32494 -2.0847,4.39323 -2.1643,9.35513 -0.2102,13.10178 2.8992,5.55851 24.8747,30.92091 27.9537,32.26189 3.8154,1.66171 7.2807,1.74074 11.6601,0.26592 z m -24.9379,-33.32249 c -1.6426,-1.87074 -3.2743,-4.30843 -3.6262,-5.41708 -0.8765,-2.76153 1.6737,-7.31619 6.1924,-11.05952 6.6092,-5.47513 11.2966,-5.33341 15.7272,0.47549 3.2298,4.23444 3.4174,3.91135 -7.5347,12.97231 l -7.7723,6.43015 z m 71.8018,-4.28276 4.2219,-3.75 -2.3132,-3 c -1.2722,-1.65 -7.8392,-9.61505 -14.5933,-17.70011 -6.7541,-8.08506 -12.2801,-15.17746 -12.2801,-15.7609 0,-2.41847 4.5888,-10.56112 7.7116,-13.6839 2.4671,-2.46715 4.2388,-3.35509 6.6943,-3.35509 3.87,0 4.899,1.01785 22.4938,22.25 6.2669,7.5625 11.9007,13.75 12.5195,13.75 1.5254,0 8.5808,-5.89083 8.5808,-7.16447 0,-0.56037 -7.1989,-9.66872 -15.9975,-20.24079 C 371.83263,481.16562 368.22903,478 362.28183,478 c -7.2527,0 -18.7482,9.91365 -21.9505,18.92997 -1.6323,4.5957 -1.7278,4.67353 -3.5274,2.87391 -2.0894,-2.08934 -3.5264,-1.61027 -8.0717,2.69093 -1.7341,1.64095 -2.4811,3.09931 -2,3.90479 1.6416,2.74888 38.6173,46.6004 39.2935,46.6004 0.3944,0 2.6169,-1.6875 4.939,-3.75 z m 144.8287,0.0918 c 3.476,-2.54792 6.203,-7.91725 6.205,-12.21717 10e-4,-3.27146 -4.9938,-26.15008 -11.0343,-50.53778 -3.5918,-14.50112 -9.5127,-27.18803 -15.4677,-33.14305 -5.5282,-5.52818 -12.9494,-7.92205 -22.2457,-7.17583 l -6.3938,0.51323 2.0238,-2.15424 c 9.9018,-10.53993 4.4189,-27.68279 -10.1307,-31.67507 -10.1603,-2.78787 -20.7854,6.05865 -20.7281,17.25829 0.058,11.3084 10.4493,21.111 20.628,19.45922 l 3.4334,-0.55717 -2.6932,3.1939 c -3.9912,4.73311 -5.3901,8.89135 -5.3901,16.02138 0,6.05399 0.465,7.31071 8.8,23.78212 5.5135,10.89562 9.6572,20.56485 11.0952,25.89037 4.6029,17.04642 11.0845,27.74032 19.3757,31.96819 5.5721,2.84135 18.2735,2.48809 22.5225,-0.62641 z m -17.4841,-8.80771 c -5.2026,-2.26262 -8.9929,-8.72032 -13.4862,-22.97648 -3.7231,-11.81286 -10.0413,-26.14762 -16.3109,-37.00643 -5.5686,-9.6447 -5.5036,-18.54501 0.1626,-22.25765 3.2594,-2.13567 11.9292,-2.06675 16.1745,0.12857 6.1351,3.17257 12.4298,15.83807 16.6721,33.54551 7.7044,32.15895 10.4268,45.00386 9.8542,46.49588 -1.3151,3.42721 -7.6417,4.42977 -13.0663,2.0706 z m -47.1196,-103.83216 c -1.1874,-1.26395 -2.4412,-3.70912 -2.7861,-5.43372 -0.5053,-2.52669 -0.1287,-3.63401 1.9392,-5.70192 4.281,-4.28103 9.7609,-2.95572 12.2319,2.9583 3.3177,7.94037 -5.5942,14.34137 -11.385,8.17734 z m 93.4444,35.82193 c 14.0686,-3.31773 27.9722,-11.98604 42.4302,-26.45335 20.8634,-20.87693 31.4229,-43.65943 32.67,-70.48645 l 0.5539,-11.91593 5.6802,-5.58407 c 7.1663,-7.04492 13.078,-17.03125 16.9442,-28.62316 5.0761,-15.21974 6.5646,-25.73513 6.5766,-46.4609 0.013,-21.6785 -1.1209,-26.62764 -7.3973,-32.29798 -3.3936,-3.06589 -3.846,-4.05373 -4.337,-9.4686 -1.1392,-12.56236 -15.9071,-43.66561 -29.527,-62.18771 -3.0517,-4.15014 -10.3139,-12.27183 -16.1382,-18.04821 -20.009,-19.84421 -43.3792,-32.90775 -72.4077,-40.47461 -11.5675,-3.01531 -20.0628,-4.27952 -40.182,-5.97961 -8.8,-0.74361 -18.7,-2.06302 -22,-2.93203 -11.8765,-3.1275 -35.9809,-1.12329 -60.9911,5.07125 -68.2883,16.91366 -123.7283,78.89745 -133.0496,148.75392 -1.8521,13.88022 -1.8413,23.65885 0.039,35.25252 2.6738,16.48611 7.767,27.49576 17.4316,37.68126 12.111,12.76374 25.882,19.23414 48.3257,22.70622 7.756,1.19987 39.5821,0.83933 42.7697,-0.48451 1.2255,-0.50894 1.7424,0.69789 2.6289,6.13729 2.9399,18.03797 12.0815,30.13561 28.9187,38.27002 12.7876,6.17796 26.289,8.03238 43.7978,6.01567 10.7958,-1.24349 11.3971,-1.21114 16.0924,0.86579 9.9391,4.39653 18.4358,13.81756 25.915,28.73395 12.7917,25.51189 32.9704,37.16471 55.2559,31.90923 z m -20.2378,-10.88375 c -9.7152,-3.17876 -18.52,-11.97365 -25.122,-25.09372 -6.11,-12.14228 -13.0197,-21.16372 -21.5367,-28.11876 l -3.7623,-3.07236 19.7092,-7.24582 c 20.8382,-7.66089 35.7116,-11.88216 51.3082,-14.56201 5.221,-0.89709 13.996,-3.21959 19.5,-5.16113 6.8648,-2.42155 12.9905,-3.80919 19.5073,-4.41896 5.225,-0.4889 13.0619,-1.80717 17.4153,-2.92949 4.3534,-1.12233 8.1551,-1.80073 8.4483,-1.50756 0.2932,0.29316 -0.018,4.89844 -0.6922,10.23395 -2.8519,22.57975 -11.2569,39.95546 -27.5779,57.0118 -9.7337,10.17234 -18.8112,17.00121 -29.0848,21.88012 -6.684,3.17422 -9.0173,3.76383 -15.9203,4.02299 -4.8914,0.18364 -9.7104,-0.22704 -12.1921,-1.03905 z m -97.0083,-60.67035 c -16.8454,-2.25543 -30.3512,-9.61477 -37.0137,-20.16887 -5.669,-8.98022 -7.9109,-27.35015 -5.3456,-43.80089 3.1393,-20.13224 20.3571,-38.01232 50.5676,-52.51296 14.5209,-6.9698 42.9313,-17.56099 57.4037,-21.39965 32.9182,-8.73125 71.0667,-11.14894 103.7367,-6.5744 16.0589,2.24861 20.477,3.54858 22.0468,6.48701 2.3554,4.40899 0.9716,31.31233 -2.2375,43.5 -4.9444,18.77824 -15.7899,36.88659 -28.0959,46.91105 -13.292,10.82757 -25.354,15.98464 -47.0912,20.1338 -17.4195,3.325 -32.7051,7.72408 -51.8285,14.91589 -16.714,6.28566 -33.9757,11.11229 -43.0304,12.0319 -3.3,0.33516 -7.575,0.76374 -9.5,0.95241 -1.925,0.18867 -6.2504,-0.0252 -9.612,-0.47529 z m 175.3164,-46.42698 c 12.4488,-13.51021 21.2395,-31.23455 25.5635,-51.54278 2.4104,-11.32047 3.0112,-38.57627 0.9547,-43.31331 -1.2031,-2.77153 -1.1745,-2.80865 1.9292,-2.5 4.6858,0.466 6.6741,3.92698 7.9357,13.81331 2.4423,19.1391 -2.0788,47.9495 -10.1561,64.71937 -6.3848,13.25582 -14.9126,20.83096 -27.728,24.63025 l -5.2966,1.57024 z m -272.7044,-3.93404 c -35.8289,-5.53168 -53.8195,-23.71837 -56.7739,-57.39261 -2.7617,-31.47818 7.0228,-64.81919 28.5298,-97.21613 9.0789,-13.67595 29.2118,-34.50066 41.7441,-43.17844 22.2861,-15.4317 44.5677,-24.69677 70.806,-29.44233 11.0875,-2.00534 42.114,-2.51763 45.113,-0.74488 1.7738,1.04851 1.509,1.50257 -3.5,5.99978 -13.0883,11.75116 -23.5468,23.10816 -26.5821,28.86587 -9.0974,17.25689 -4.7302,32.26888 13.0859,44.98217 8.859,6.32169 18.2,16.47409 21.3572,23.21252 2.2932,4.89453 2.7192,7.13885 2.7153,14.30531 0,7.24431 -0.4294,9.42116 -2.88,14.73549 -1.5815,3.42952 -3.5089,6.76122 -4.2831,7.40377 -0.7743,0.64256 -5.5532,2.83768 -10.62,4.87804 -12.2977,4.95227 -30.4523,14.1243 -39.1505,19.77952 -3.8839,2.52522 -11.156,8.66648 -16.1601,13.64724 -12.777,12.7174 -18.0904,24.11899 -19.8915,42.68318 l -0.643,6.62725 -4.1836,0.63969 c -9.0497,1.38375 -30.3456,1.50187 -38.6835,0.21456 z m 145.6062,-97.59194 c 6.7893,-19.70587 -1.7565,-39.81011 -24.3293,-57.23566 -12.8436,-9.91484 -15.7588,-13.94008 -15.7038,-21.68293 0.071,-10.03421 6.4847,-19.22413 23.4763,-33.64015 5.641,-4.78596 9.4387,-8.87415 10.6166,-11.42891 1.742,-3.77817 2.0595,-3.97716 6.334,-3.96968 8.5062,0.0149 24.6047,1.82378 34.359,3.86072 46.4697,9.70405 81.5819,36.53301 103.4951,79.07981 7.6191,14.79346 12.9775,28.37453 13.3509,33.83897 0.293,4.28642 0.265,4.32603 -4.1228,5.83267 -4.0662,1.3962 -5.4247,1.34891 -17.0697,-0.59427 -24.8535,-4.14725 -59.6589,-4.38714 -85.0125,-0.58592 -12.981,1.94622 -31.0611,5.94918 -38.6258,8.55182 -8.1199,2.79364 -8.3998,2.70984 -6.768,-2.02647 z"
     id="path825"
     inkscape:connector-curvature="0" />
</svg>
