<?xml version="1.0" encoding="UTF-8" standalone="no"?>
<!-- Created with Inkscape (http://www.inkscape.org/) -->

<svg
   xmlns:dc="http://purl.org/dc/elements/1.1/"
   xmlns:cc="http://creativecommons.org/ns#"
   xmlns:rdf="http://www.w3.org/1999/02/22-rdf-syntax-ns#"
   xmlns:svg="http://www.w3.org/2000/svg"
   xmlns="http://www.w3.org/2000/svg"
   xmlns:sodipodi="http://sodipodi.sourceforge.net/DTD/sodipodi-0.dtd"
   xmlns:inkscape="http://www.inkscape.org/namespaces/inkscape"
   width="52.916672mm"
   height="52.916668mm"
   viewBox="0 0 52.916672 52.916668"
   version="1.1"
   id="svg845"
   inkscape:version="0.92.5 (0.92.5+68)"
   sodipodi:docname="squared_logo.svg">
  <defs
     id="defs839" />
  <sodipodi:namedview
     id="base"
     pagecolor="#ffffff"
     bordercolor="#666666"
     borderopacity="1.0"
     inkscape:pageopacity="0.0"
     inkscape:pageshadow="2"
     inkscape:zoom="1.979899"
     inkscape:cx="-2.8917103"
     inkscape:cy="82.473924"
     inkscape:document-units="mm"
     inkscape:current-layer="layer1"
     showgrid="false"
     fit-margin-top="0"
     fit-margin-left="0"
     fit-margin-right="0"
     fit-margin-bottom="0"
     inkscape:window-width="1920"
     inkscape:window-height="1051"
     inkscape:window-x="0"
     inkscape:window-y="0"
     inkscape:window-maximized="1" />
  <metadata
     id="metadata842">
    <rdf:RDF>
      <cc:Work
         rdf:about="">
        <dc:format>image/svg+xml</dc:format>
        <dc:type
           rdf:resource="http://purl.org/dc/dcmitype/StillImage" />
        <dc:title></dc:title>
      </cc:Work>
    </rdf:RDF>
  </metadata>
  <g
     inkscape:label="Layer 1"
     inkscape:groupmode="layer"
     id="layer1"
     transform="translate(-72.57143,-93.648808)">
    <rect
       style="opacity:1;fill:#000000;fill-opacity:1;stroke:#000000;stroke-width:0.48079658;stroke-linecap:round;stroke-linejoin:round;stroke-miterlimit:4;stroke-dasharray:none;stroke-opacity:1"
       id="rect827"
       width="52.435875"
       height="52.435871"
       x="72.811829"
       y="93.889206"
       inkscape:export-xdpi="96"
       inkscape:export-ydpi="96" />
    <path
       style="fill:#ffffff;stroke-width:0.0627238"
       d="m 97.26272,136.53018 c 0.77233,-0.6382 2.15244,-1.57727 3.01921,-2.05432 1.18095,-0.65 2.21489,-1.08296 5.03921,-2.11015 2.78678,-1.01355 4.58042,-1.80688 4.58042,-2.02588 0,-0.0607 -0.17436,-0.99887 -0.38748,-2.08484 -0.37773,-1.92474 -0.38746,-1.99978 -0.38574,-2.9781 0.002,-0.82782 0.0255,-1.09145 0.13722,-1.50536 0.18888,-0.69954 0.52603,-1.3699 1.16724,-2.32078 0.55883,-0.8288 1.24059,-2.14037 1.46714,-2.82257 0.40936,-1.23276 0.64347,-4.38665 0.44479,-5.99176 -0.19396,-1.56666 -0.70622,-3.178 -1.37364,-4.32078 -1.11528,-1.90962 -3.09806,-3.5185 -5.46075,-4.43109 -2.54196,-0.9818 -5.78881,-1.02648 -9.29467,-0.12797 -2.05442,0.52652 -3.40514,1.25855 -4.69611,2.54499 -1.26148,1.25707 -2.026,2.60686 -2.50545,4.42341 -0.33242,1.25938 -0.38728,1.70991 -0.43166,3.54391 -0.033,1.36477 -0.0623,1.77073 -0.14029,1.94443 -0.0542,0.12073 -0.39311,0.61468 -0.75313,1.09767 -1.00956,1.35428 -1.72235,2.36186 -1.86654,2.63848 -0.19893,0.38164 -0.23382,0.78564 -0.0986,1.1406 0.14185,0.3722 0.71279,0.98186 1.10657,1.18163 0.16146,0.082 0.33787,0.2122 0.39203,0.28953 0.14001,0.19988 0.125,0.78476 -0.0351,1.36904 -0.15437,0.56335 -0.13078,0.80911 0.11198,1.16687 0.15385,0.22671 0.15888,0.25768 0.0871,0.53773 -0.11522,0.44957 -0.0413,0.64283 0.44102,1.15237 0.58786,0.62112 0.59576,0.67228 0.27886,1.81403 -0.2391,0.86147 -0.25418,1.78635 -0.0371,2.27557 0.18687,0.42113 0.65009,0.84291 1.11793,1.01797 0.64513,0.24136 3.14633,0.56398 4.37257,0.56398 0.87582,0 1.44368,0.31657 1.78502,0.99513 0.0978,0.19439 0.36523,1.03084 0.59432,1.8588 0.4353,1.57315 0.50553,1.78766 0.5853,1.7876 0.0266,-2e-5 0.35886,-0.25659 0.73835,-0.57014 z m -0.37595,-0.95089 c -0.0148,-0.0431 -0.14339,-0.50177 -0.2857,-1.01926 -0.39202,-1.42584 -0.73664,-2.05868 -1.35139,-2.48163 -0.52912,-0.36402 -0.87144,-0.43906 -2.28354,-0.50049 -1.5656,-0.0681 -3.13767,-0.29869 -3.60995,-0.52948 -0.64026,-0.31288 -0.77052,-1.00289 -0.42646,-2.259 0.21869,-0.79833 0.25777,-1.39418 0.11585,-1.76581 -0.0615,-0.16103 -0.25958,-0.43148 -0.47589,-0.64985 -0.20379,-0.20571 -0.37057,-0.41764 -0.37057,-0.47095 0,-0.0533 0.0706,-0.23622 0.15681,-0.40638 0.0862,-0.1702 0.15681,-0.35085 0.15681,-0.40148 0,-0.0506 -0.11997,-0.1729 -0.26658,-0.27174 -0.24201,-0.16321 -0.26584,-0.20261 -0.25881,-0.42756 0.004,-0.13627 0.0389,-0.36069 0.0769,-0.49868 0.11393,-0.4135 0.088,-1.33889 -0.0458,-1.6334 -0.12824,-0.28234 -0.43328,-0.5673 -0.74883,-0.69951 -0.27137,-0.11372 -0.74706,-0.59163 -0.77699,-0.78067 -0.0545,-0.34402 0.16349,-0.69507 1.71415,-2.7607 0.40541,-0.54002 0.8296,-1.16099 0.94265,-1.37993 l 0.20561,-0.39809 0.0425,-1.7249 c 0.0325,-1.31617 0.0731,-1.89584 0.17157,-2.4462 0.40708,-2.27522 1.24718,-3.95293 2.65735,-5.30676 1.39625,-1.34044 3.13403,-2.09402 5.91434,-2.56471 3.19869,-0.54155 5.71718,-0.25334 8.09138,0.92599 3.19746,1.58827 4.87652,4.0645 5.30505,7.82359 0.1664,1.45964 -0.0647,4.26614 -0.44517,5.40588 -0.25914,0.77624 -0.7827,1.78608 -1.4118,2.72303 -1.15425,1.71907 -1.45253,2.67968 -1.39073,4.47857 0.0286,0.83232 0.0792,1.2024 0.35182,2.57167 0.17515,0.87971 0.31861,1.65774 0.31889,1.72896 5.3e-4,0.0878 -0.0754,0.16633 -0.2348,0.2437 -0.67227,0.32632 -2.16783,0.92284 -3.80063,1.51588 -2.48264,0.90173 -3.22024,1.20441 -4.43789,1.82111 -1.07723,0.54558 -2.01633,1.12391 -2.94919,1.8162 -0.29721,0.22054 -0.55919,0.401 -0.58217,0.401 -0.0229,0 -0.054,-0.0353 -0.0688,-0.0784 z m 6.37795,-7.91553 c 0.28121,-0.0474 0.52954,-0.31828 0.59074,-0.64446 0.0272,-0.14497 0.003,-0.39307 -0.065,-0.67244 -0.0594,-0.2435 -0.18782,-0.80966 -0.28525,-1.25813 -0.0974,-0.44846 -0.23785,-0.99512 -0.31199,-1.21477 -0.0742,-0.21961 -0.12177,-0.41239 -0.10579,-0.42839 0.0159,-0.0159 0.0955,0.0145 0.17663,0.0677 0.49285,0.32293 1.28724,0.38961 1.96284,0.16476 0.58746,-0.19546 1.30142,-0.68522 1.91479,-1.31349 0.95437,-0.97751 1.44661,-2.01824 1.57918,-3.33894 l 0.0714,-0.71103 0.30514,-0.33584 c 0.69155,-0.76123 1.04379,-1.86037 1.09907,-3.42973 0.0404,-1.14713 -0.0436,-1.60643 -0.3496,-1.9125 -0.1212,-0.1212 -0.19195,-0.28252 -0.24209,-0.5522 -0.14827,-0.79735 -0.87969,-2.26114 -1.59287,-3.18776 -0.38242,-0.49689 -1.28874,-1.33825 -1.80968,-1.68007 -1.27119,-0.83403 -2.71409,-1.28498 -4.42343,-1.38247 -0.37945,-0.0217 -0.84256,-0.0842 -1.02905,-0.13907 -0.26918,-0.0791 -0.51493,-0.0923 -1.19176,-0.0636 -0.96883,0.0411 -1.65507,0.15923 -2.51482,0.43301 -3.04287,0.96887 -5.4189,3.61765 -6.12205,6.82467 -0.14609,0.66622 -0.1494,2.09327 -0.006,2.63437 0.35221,1.33028 1.18606,2.16945 2.56363,2.58008 0.39042,0.11638 0.63891,0.13942 1.6488,0.15288 l 1.18908,0.0158 0.0793,0.3491 c 0.28988,1.27642 1.43879,2.0985 2.97393,2.1279 0.27279,0.005 0.49599,0.0201 0.49599,0.0329 0,0.0129 -0.0689,0.10521 -0.15303,0.20523 -0.23608,0.28057 -0.2701,0.67824 -0.0892,1.04285 0.15901,0.32047 0.48274,0.58103 0.72194,0.58103 0.1732,0 0.17882,0.0353 0.0534,0.33531 -0.19104,0.45729 -0.13174,0.7698 0.31539,1.66131 0.22522,0.44905 0.50648,1.12269 0.62498,1.497 0.24337,0.76854 0.50005,1.20363 0.83062,1.40793 0.22847,0.14122 0.5971,0.24084 0.76933,0.208 0.0517,-0.01 0.19825,-0.0355 0.32552,-0.0569 z m -0.72649,-0.79332 c -0.21681,-0.17054 -0.35972,-0.46013 -0.56972,-1.15447 -0.0939,-0.3105 -0.35519,-0.92111 -0.58059,-1.35693 -0.35834,-0.69285 -0.40452,-0.82083 -0.36744,-1.0185 0.0255,-0.13548 0.0953,-0.25438 0.17434,-0.29668 0.18128,-0.097 0.65538,-0.0336 0.81285,0.10869 0.26891,0.24299 0.58879,1.06814 0.77494,1.99891 0.0552,0.27598 0.15535,0.71819 0.22256,0.98267 0.0672,0.26448 0.12223,0.56793 0.12223,0.67425 0,0.17777 -0.0171,0.19343 -0.21109,0.19343 -0.11928,0 -0.28372,-0.0572 -0.37808,-0.13137 z m 1.24776,-3.90143 c -0.41205,-0.19798 -0.75891,-0.58539 -1.10118,-1.22987 -0.1559,-0.29355 -0.45157,-0.71187 -0.67079,-0.94915 l -0.39206,-0.42427 0.7684,-0.28209 c 1.09271,-0.40112 1.52028,-0.52478 2.45385,-0.70962 0.45292,-0.0897 0.99626,-0.22802 1.20741,-0.30745 0.21115,-0.0794 0.57809,-0.16392 0.81542,-0.18778 0.44395,-0.0447 0.8638,-0.12177 1.04806,-0.19246 0.0861,-0.033 0.10475,0.001 0.10475,0.18934 0,0.3788 -0.18873,1.10271 -0.41773,1.60236 -0.61069,1.33246 -2.04407,2.53907 -3.1049,2.61372 -0.32829,0.023 -0.45229,0.002 -0.71123,-0.12273 z m -1.81899,-0.64015 c -0.0345,-0.0118 -0.19477,-0.0392 -0.35612,-0.0609 l -0.29344,-0.0395 0.0962,-0.23021 c 0.0634,-0.15167 0.0839,-0.32714 0.0602,-0.51431 l -0.036,-0.28411 0.18163,0.21175 c 0.0999,0.11644 0.27002,0.3775 0.37804,0.58017 0.18471,0.34656 0.17907,0.40885 -0.0305,0.3371 z m -1.62974,-0.50964 c -0.14918,-0.14918 -0.0996,-0.4261 0.0808,-0.45169 0.19567,-0.0277 0.32587,0.0936 0.32587,0.30374 0,0.2477 -0.225,0.32959 -0.40663,0.14795 z m -1.6241,-1.84942 c -0.63781,-0.14977 -1.24497,-0.60505 -1.4903,-1.11746 -0.19109,-0.39914 -0.23905,-1.49477 -0.0907,-2.07362 0.30607,-1.19471 1.49156,-2.0879 3.95273,-2.97823 0.98919,-0.35779 1.72938,-0.55495 2.63845,-0.70273 1.36986,-0.22274 4.36984,-0.11 4.71594,0.17723 0.0584,0.0485 0.0824,0.25868 0.0824,0.72195 0,1.94918 -0.85243,3.4806 -2.35039,4.22268 -0.40195,0.19911 -0.73309,0.3018 -1.42801,0.44289 -0.98555,0.20007 -1.61322,0.38287 -2.97559,0.86653 -1.32491,0.47036 -2.31804,0.61366 -3.05449,0.44076 z m 9.25568,-2.19251 c 0.96067,-1.26735 1.3365,-2.40933 1.29508,-3.93498 -0.0198,-0.728 -0.0151,-0.76429 0.0835,-0.64254 0.15188,0.18759 0.20511,0.95213 0.12177,1.74823 -0.16938,1.61754 -0.71301,2.67468 -1.53167,2.97848 -0.0968,0.0359 -0.0921,0.0136 0.0313,-0.14919 z M 94.2273,117.52041 c -1.4599,-0.20876 -2.39768,-1.02719 -2.63979,-2.30382 -0.16425,-0.86594 -0.0333,-2.181 0.31672,-3.182 0.4416,-1.26284 1.15238,-2.36231 2.16236,-3.34497 1.2215,-1.18839 2.55073,-1.87975 4.23286,-2.20161 0.70856,-0.13557 2.13445,-0.20096 2.23383,-0.10247 0.0284,0.0282 -0.0748,0.15283 -0.22953,0.27703 -0.52272,0.41972 -1.06467,1.03511 -1.25873,1.42934 -0.37837,0.76855 -0.19362,1.52761 0.50727,2.0842 0.80558,0.63971 0.99514,0.83416 1.18634,1.21678 0.25146,0.50323 0.26073,0.92272 0.0316,1.43322 -0.15782,0.35172 -0.17288,0.36484 -0.61157,0.53491 -0.63035,0.24436 -1.63474,0.75242 -2.08056,1.05245 -0.50216,0.33794 -1.15113,1.0053 -1.36562,1.40429 -0.18963,0.35287 -0.42201,1.17548 -0.42201,1.49404 v 0.2003 l -0.47988,0.0406 c -0.60105,0.0508 -1.06907,0.0413 -1.58331,-0.0323 z m 7.39719,-4.89094 c 0.14914,-0.52005 -0.007,-1.3017 -0.36423,-1.82054 -0.10595,-0.15399 -0.38105,-0.44758 -0.61136,-0.65236 -1.05107,-0.93485 -1.03406,-0.91358 -1.03406,-1.29206 0,-0.46285 0.19013,-0.74821 0.99034,-1.48634 0.34999,-0.32282 0.65458,-0.64442 0.67687,-0.71466 0.0384,-0.12106 0.0752,-0.12581 0.70771,-0.0912 1.98581,0.10878 3.64016,0.84382 4.94434,2.19694 0.78444,0.81384 1.30034,1.63723 1.77584,2.83415 0.35339,0.88961 0.25789,0.96345 -0.95663,0.73943 -0.82922,-0.15295 -3.07805,-0.15115 -4.03002,0.003 -0.57861,0.0938 -1.41401,0.28157 -2.0204,0.45407 -0.13094,0.0373 -0.13531,0.0277 -0.0784,-0.17063 z"
       id="path827"
       inkscape:connector-curvature="0"
       sodipodi:nodetypes="cssscccccssssssscscscccccccscsccccsscccsccscscccsccsccssssscsscccccccssccccsccssscsscscscccssccccccsccscscccccccccccccsscccccsssccsscccccccccccccsccccsscscssccccccccsssccssccccscsccccccsccsssscccc"
       inkscape:export-xdpi="96"
       inkscape:export-ydpi="96" />
  </g>
</svg>
