<?xml version="1.0" encoding="UTF-8" standalone="no"?>
<svg
   xmlns:dc="http://purl.org/dc/elements/1.1/"
   xmlns:cc="http://creativecommons.org/ns#"
   xmlns:rdf="http://www.w3.org/1999/02/22-rdf-syntax-ns#"
   xmlns:svg="http://www.w3.org/2000/svg"
   xmlns="http://www.w3.org/2000/svg"
   xmlns:sodipodi="http://sodipodi.sourceforge.net/DTD/sodipodi-0.dtd"
   xmlns:inkscape="http://www.inkscape.org/namespaces/inkscape"
   width="512"
   height="512"
   viewBox="0 0 512 512"
   version="1.1"
   id="svg15"
   sodipodi:docname="openneuroscience_logo_dark.svg"
   style="fill:none"
   inkscape:export-filename="/home/andre/repositories/openneuroscience/landing_page/assets/images/icon1.png"
   inkscape:export-xdpi="376"
   inkscape:export-ydpi="376"
   inkscape:version="0.92.5 (2060ec1f9f, 2020-04-08)">
  <metadata
     id="metadata19">
    <rdf:RDF>
      <cc:Work
         rdf:about="">
        <dc:format>image/svg+xml</dc:format>
        <dc:type
           rdf:resource="http://purl.org/dc/dcmitype/StillImage" />
        <dc:title></dc:title>
      </cc:Work>
    </rdf:RDF>
  </metadata>
  <sodipodi:namedview
     pagecolor="#ffffff"
     bordercolor="#666666"
     borderopacity="1"
     objecttolerance="10"
     gridtolerance="10"
     guidetolerance="10"
     inkscape:pageopacity="0"
     inkscape:pageshadow="2"
     inkscape:window-width="1920"
     inkscape:window-height="1016"
     id="namedview17"
     showgrid="false"
     inkscape:zoom="0.70238095"
     inkscape:cx="-133.68475"
     inkscape:cy="206.06138"
     inkscape:window-x="0"
     inkscape:window-y="27"
     inkscape:window-maximized="1"
     inkscape:current-layer="svg15" />
  <g
     clip-path="url(#clip0)"
     id="g8"
     transform="matrix(3.9129072,0,0,3.9129072,1.6278896,100.64095)">
    <path
       d="m 84.9158,49.4031 c 4.0796,0 7.4037,3.3237 7.4037,7.4029 v 2.5683 c 0,4.5324 -1.0577,8.6115 -3.173,12.3885 -2.1153,3.777 -5.1373,6.6475 -9.2168,8.9137 -3.9285,2.2661 -8.7636,3.3237 -14.3541,3.3237 -5.5906,0 -10.4257,-1.0576 -14.3541,-3.3237 -3.9285,-2.2662 -6.9504,-5.1367 -9.0658,-8.9137 -2.1153,-3.777 -3.173,-7.8561 -3.173,-12.3885 V 56.806 c 0,-4.0792 3.3241,-7.4029 7.4037,-7.4029 4.0796,0 7.4037,3.3237 7.4037,7.4029 v 2.5683 c 0,2.2662 0.6044,4.2302 1.662,6.0432 1.0577,1.8129 2.5687,3.3237 4.3818,4.3813 1.8132,1.0575 3.7774,1.6618 6.0438,1.6618 2.2665,0 4.2307,-0.6043 6.0439,-1.6618 1.8131,-1.0576 3.3241,-2.5684 4.3818,-4.3813 1.0576,-1.813 1.662,-3.777 1.662,-6.0432 V 56.806 c -0.4533,-4.0792 2.8708,-7.4029 6.9504,-7.4029 z"
       id="path2"
       inkscape:connector-curvature="0"
       style="fill:#495057" />
    <path
       d="M 7.40369,55.8993 C 3.32411,55.8993 0,52.7266 0,48.6475 V 24.6259 C 0,20.0935 1.05767,16.0144 3.17301,12.2374 5.28835,8.46043 8.31027,5.58993 12.3899,3.32374 16.3183,1.05755 21.1534,0 26.7439,0 c 5.5906,0 10.4257,1.05755 14.3541,3.32374 3.9285,2.26619 6.9505,5.13669 9.0658,8.91366 2.1153,3.777 3.173,7.8561 3.173,12.3885 v 2.5683 c 0,4.0792 -3.3241,7.4029 -7.4037,7.4029 -4.0796,0 -7.4037,-3.3237 -7.4037,-7.4029 v -2.5683 c 0,-2.2662 -0.6044,-4.2302 -1.662,-6.0432 -1.0577,-1.8129 -2.5687,-3.3237 -4.3818,-4.3813 -1.8132,-1.0575 -3.7774,-1.6618 -6.0438,-1.6618 -2.2665,0 -4.2307,0.6043 -6.0439,1.6618 -1.8131,1.0576 -3.3241,2.5684 -4.3818,4.3813 -1.0576,1.813 -1.662,3.777 -1.662,6.0432 v 24.0216 c 0.3022,4.0791 -3.0219,7.2518 -6.95041,7.2518 z"
       id="path4"
       inkscape:connector-curvature="0"
       style="fill:#495057" />
    <path
       d="m 84.9158,34.5971 c -4.0796,0 -7.4037,-3.3237 -7.4037,-7.4029 v -2.5683 c 0,-4.5324 1.0577,-8.6115 3.173,-12.3885 C 82.8005,8.46043 85.8224,5.58993 89.902,3.32374 93.8305,1.05755 98.6655,0 104.256,0 c 5.591,0 10.426,1.05755 14.354,3.32374 3.929,2.26619 6.951,5.13669 9.066,8.91366 2.115,3.777 3.173,7.8561 3.173,12.3885 v 24.0216 c 0,4.0791 -3.324,7.4029 -7.404,7.4029 -4.079,0 -7.403,-3.3238 -7.403,-7.4029 V 24.6259 c 0,-2.2662 -0.605,-4.2302 -1.663,-6.0432 -1.057,-1.8129 -2.568,-3.3237 -4.381,-4.3813 -1.813,-1.0575 -3.778,-1.6618 -6.044,-1.6618 -2.267,0 -4.2308,0.6043 -6.044,1.6618 -1.8131,1.0576 -3.3241,2.5684 -4.3817,4.3813 -1.0577,1.813 -1.6621,3.777 -1.6621,6.0432 v 2.5683 c 0.4533,4.0792 -2.8708,7.4029 -6.9504,7.4029 z"
       id="path6"
       inkscape:connector-curvature="0"
       style="fill:#495057" />
  </g>
  <defs
     id="defs13">
    <clipPath
       id="clip0">
      <rect
         width="131"
         height="84"
         id="rect10"
         x="0"
         y="0"
         style="fill:#ffffff" />
    </clipPath>
  </defs>
</svg>
